<svg xmlns="http://www.w3.org/2000/svg" width="320" height="320" viewBox="0 0 320 320" role="img" aria-label="Professional official portrait">
  <defs>
    <linearGradient id="bg" x1="0" x2="1" y1="0" y2="1"><stop stop-color="#e8f7ee"/><stop offset="1" stop-color="#d7ecff"/></linearGradient>
    <linearGradient id="coat" x1="0" x2="1" y1="0" y2="1"><stop stop-color="#f8fafc"/><stop offset="1" stop-color="#d7dee8"/></linearGradient>
  </defs>
  <rect width="320" height="320" rx="42" fill="url(#bg)"/>
  <circle cx="160" cy="125" r="72" fill="#243449"/>
  <path d="M92 134c9-58 38-84 75-84 42 0 65 31 67 84-21-18-43-28-72-28-28 0-49 9-70 28z" fill="#192536"/>
  <circle cx="160" cy="132" r="52" fill="#c8875f"/>
  <path d="M118 127c17-42 49-57 91-34 8 20 5 38-2 53-16-20-38-31-70-28-5 3-11 6-19 9z" fill="#172333"/>
  <path d="M63 284c10-54 47-86 97-86s87 32 97 86H63z" fill="#0f7a43"/>
  <path d="M107 284v-48c13-15 31-24 53-24s40 9 53 24v48H107z" fill="url(#coat)"/>
  <path d="M137 213l23 30 23-30v71h-46z" fill="#ffffff"/>
  <path d="M145 242h30l-9 42h-12l-9-42z" fill="#0f7a43"/>
  <circle cx="142" cy="128" r="5" fill="#142033"/><circle cx="178" cy="128" r="5" fill="#142033"/>
  <path d="M140 158c13 10 28 10 40 0" fill="none" stroke="#7b4a35" stroke-width="6" stroke-linecap="round"/>
</svg>
