<svg xmlns="http://www.w3.org/2000/svg" width="320" height="320" viewBox="0 0 320 320" role="img" aria-label="Professional official portrait">
  <rect width="320" height="320" rx="42" fill="#fdf2f8"/>
  <path d="M86 135c0-58 30-88 75-88s75 30 75 89c0 53-31 84-75 84s-75-32-75-85z" fill="#2b1b2a"/>
  <circle cx="161" cy="139" r="53" fill="#dba17b"/>
  <path d="M99 126c16-51 53-71 101-50 21 13 30 37 27 70-28-28-66-40-112-30-5 3-10 6-16 10z" fill="#211421"/>
  <path d="M56 285c11-57 50-90 105-90s94 33 105 90H56z" fill="#be185d"/>
  <path d="M104 285v-47c15-16 34-25 57-25s42 9 57 25v47H104z" fill="#f8fafc"/>
  <circle cx="143" cy="138" r="5" fill="#111827"/><circle cx="180" cy="138" r="5" fill="#111827"/>
  <path d="M142 166c12 9 27 9 39 0" fill="none" stroke="#85523c" stroke-width="6" stroke-linecap="round"/>
</svg>
