<svg xmlns="http://www.w3.org/2000/svg" width="320" height="320" viewBox="0 0 320 320" role="img" aria-label="Professional official portrait">
  <rect width="320" height="320" rx="42" fill="#f5f0ff"/>
  <path d="M86 139c0-60 30-91 75-91s75 31 75 91c0 54-31 82-75 82s-75-28-75-82z" fill="#2a2038"/>
  <circle cx="161" cy="139" r="53" fill="#d99f78"/>
  <path d="M101 133c11-54 46-78 99-56 20 13 28 38 25 71-22-27-52-41-91-39-9 6-19 14-33 24z" fill="#21182e"/>
  <path d="M56 285c11-57 50-90 105-90s94 33 105 90H56z" fill="#6d28d9"/>
  <path d="M104 285v-47c15-16 34-25 57-25s42 9 57 25v47H104z" fill="#f8fafc"/>
  <circle cx="143" cy="138" r="5" fill="#111827"/><circle cx="180" cy="138" r="5" fill="#111827"/>
  <path d="M142 166c12 9 27 9 39 0" fill="none" stroke="#85523c" stroke-width="6" stroke-linecap="round"/>
</svg>
