<svg xmlns="http://www.w3.org/2000/svg" width="320" height="320" viewBox="0 0 320 320" role="img" aria-label="Professional official portrait">
  <rect width="320" height="320" rx="42" fill="#fff7ed"/>
  <path d="M83 137c0-58 31-90 78-90s78 32 78 91c0 54-32 86-78 86s-78-33-78-87z" fill="#2c241d"/>
  <circle cx="161" cy="139" r="53" fill="#deaa82"/>
  <path d="M96 129c9-48 42-74 90-67 23 10 40 33 44 69-35-20-80-23-134-2z" fill="#221b17"/>
  <path d="M57 285c11-57 50-91 104-91s93 34 104 91H57z" fill="#b45309"/>
  <path d="M104 285v-48c15-15 34-24 57-24s42 9 57 24v48H104z" fill="#f8fafc"/>
  <circle cx="143" cy="139" r="5" fill="#111827"/><circle cx="180" cy="139" r="5" fill="#111827"/>
  <path d="M143 167c12 9 25 9 37 0" fill="none" stroke="#8a593f" stroke-width="6" stroke-linecap="round"/>
</svg>
