<svg xmlns="http://www.w3.org/2000/svg" width="320" height="320" viewBox="0 0 320 320" role="img" aria-label="Professional official portrait">
  <rect width="320" height="320" rx="42" fill="#edf6ff"/>
  <circle cx="160" cy="124" r="74" fill="#334155"/>
  <circle cx="160" cy="135" r="52" fill="#b87958"/>
  <path d="M98 134c7-57 37-86 83-79 31 6 50 35 44 84-29-25-71-38-127-5z" fill="#202938"/>
  <path d="M63 284c9-55 47-87 97-87s88 32 97 87H63z" fill="#1d4ed8"/>
  <path d="M108 284v-49c13-15 31-23 52-23s39 8 52 23v49H108z" fill="#f8fafc"/>
  <path d="M137 216l23 28 23-28v68h-46z" fill="#ffffff"/>
  <path d="M145 245h30l-9 39h-12l-9-39z" fill="#1d4ed8"/>
  <circle cx="142" cy="134" r="5" fill="#111827"/><circle cx="178" cy="134" r="5" fill="#111827"/>
  <path d="M142 160c12 9 25 9 37 0" fill="none" stroke="#784832" stroke-width="6" stroke-linecap="round"/>
</svg>
