<svg xmlns="http://www.w3.org/2000/svg" width="320" height="320" viewBox="0 0 320 320" role="img" aria-label="Professional official portrait">
  <rect width="320" height="320" rx="42" fill="#ecfdf3"/>
  <path d="M89 131c6-55 34-83 72-83 45 0 70 32 71 88-36-25-83-27-143-5z" fill="#172333"/>
  <circle cx="161" cy="136" r="53" fill="#c68462"/>
  <path d="M99 123c21-43 58-57 112-27 8 19 8 39 0 60-18-24-43-36-76-34-10 1-22 2-36 1z" fill="#0f172a"/>
  <path d="M62 284c10-55 48-87 99-87s89 32 99 87H62z" fill="#0f7a43"/>
  <path d="M108 284v-47c13-16 31-24 53-24s40 8 53 24v47H108z" fill="#e7edf5"/>
  <path d="M138 216l23 29 23-29v68h-46z" fill="#ffffff"/>
  <circle cx="143" cy="136" r="5" fill="#111827"/><circle cx="180" cy="136" r="5" fill="#111827"/>
  <path d="M143 162c12 9 25 9 37 0" fill="none" stroke="#784832" stroke-width="6" stroke-linecap="round"/>
</svg>
